<?xml version="1.0" encoding="UTF-8" standalone="no"?><!DOCTYPE svg PUBLIC "-//W3C//DTD SVG 1.1//EN" "http://www.w3.org/Graphics/SVG/1.1/DTD/svg11.dtd"><svg width="100%" height="100%" viewBox="0 0 512 512" version="1.1" xmlns="http://www.w3.org/2000/svg" xmlns:xlink="http://www.w3.org/1999/xlink" xml:space="preserve" xmlns:serif="http://www.serif.com/" style="fill-rule:evenodd;clip-rule:evenodd;stroke-linejoin:round;stroke-miterlimit:1.41421;"><path d="M26.325,356.612c0,20.105 10.726,38.684 28.138,48.737c44.159,25.495 129.24,74.616 173.399,100.111c17.412,10.053 38.864,10.053 56.276,0c44.159,-25.495 129.24,-74.616 173.399,-100.111c17.412,-10.053 28.138,-28.632 28.138,-48.737c0,-50.99 0,-149.234 0,-200.224c0,-20.105 -10.726,-38.684 -28.138,-48.737c-44.159,-25.495 -129.24,-74.616 -173.399,-100.111c-17.412,-10.053 -38.864,-10.053 -56.276,0c-44.159,25.495 -129.24,74.616 -173.399,100.111c-17.412,10.053 -28.138,28.632 -28.138,48.737c0,50.99 0,149.234 0,200.224Zm48.326,11.797c-4.933,-2.878 -7.963,-8.126 -7.988,-13.837c-0.133,-29.901 -0.556,-125.193 -0.771,-173.685c-0.027,-5.89 3.144,-11.373 8.297,-14.348c5.152,-2.974 11.486,-2.979 16.574,-0.012c40.782,23.788 119.609,69.767 144.804,84.463c4.934,2.877 7.964,8.125 7.989,13.836c0.133,29.902 0.556,125.194 0.771,173.686c0.026,5.889 -3.145,11.372 -8.297,14.347c-5.153,2.975 -11.487,2.979 -16.574,0.012c-40.783,-23.788 -119.61,-69.766 -144.805,-84.462Zm18.691,-46.194c0,-4.609 3.832,-6.142 8.551,-3.421l94.566,54.53c4.72,2.721 8.551,8.673 8.551,13.282l0,16.704c0,4.609 -3.831,6.142 -8.551,3.42l-94.566,-54.529c-4.719,-2.722 -8.551,-8.674 -8.551,-13.283l0,-16.703Z"/></svg>