<svg xmlns="http://www.w3.org/2000/svg" fill-rule="evenodd" stroke-linejoin="round" stroke-miterlimit="1.41421" clip-rule="evenodd" viewBox="0 0 512 512">
<path d="M26.325 356.612c0 20.105 10.726 38.684 28.138 48.737 44.159 25.495 129.24 74.616 173.399 100.111 17.412 10.053 38.864 10.053 56.276 0 44.159-25.495 129.24-74.616 173.399-100.111 17.412-10.053 28.138-28.632 28.138-48.737V156.388c0-20.105-10.726-38.684-28.138-48.737C413.378 82.156 328.297 33.035 284.138 7.54c-17.412-10.053-38.864-10.053-56.276 0-44.159 25.495-129.24 74.616-173.399 100.111-17.412 10.053-28.138 28.632-28.138 48.737v200.224zm48.326 11.797c-4.933-2.878-7.963-8.126-7.988-13.837-.133-29.901-.556-125.193-.771-173.685-.027-5.89 3.144-11.373 8.297-14.348 5.152-2.974 11.486-2.979 16.574-.012 40.782 23.788 119.609 69.767 144.804 84.463 4.934 2.877 7.964 8.125 7.989 13.836.133 29.902.556 125.194.771 173.686.026 5.889-3.145 11.372-8.297 14.347-5.153 2.975-11.487 2.979-16.574.012-40.783-23.788-119.61-69.766-144.805-84.462zm18.691-46.194c0-4.609 3.832-6.142 8.551-3.421l94.566 54.53c4.72 2.721 8.551 8.673 8.551 13.282v16.704c0 4.609-3.831 6.142-8.551 3.42l-94.566-54.529c-4.719-2.722-8.551-8.674-8.551-13.283v-16.703z"/>
</svg>